#!OML:ASF I:\Actors\actors\Patient Classification 2\Patient 1\Session 1\actor1.ASF
:FULLY-SPECIFIED
:DEGREES
220
root -0.845894 18.4591 5.06403 3.57321 2.60405 2.62479
lowerback 19.9099 5.63955 -0.408425
upperback 2.30834 7.0025 -3.46736
thorax -8.16651 3.32484 -5.38002
lowerneck -15.6361 -10.688 -5.96066
upperneck 15.8227 -16.0925 13.9396
head 9.23814 -6.61299 3.50106
rclavicle -3.3197e-014 6.95746e-015
rhumerus 47.5437 -2.34515 -29.5663
rradius 67.2312
rwrist -4.17108
rhand -20.0396 -27.4324
rfingers 7.12502
rthumb 6.30155 -57.3187
lclavicle -3.3197e-014 6.95746e-015
lhumerus -24.2885 -37.3268 92.1739
lradius 128.182
lwrist 27.4778
lhand -3.21898 -27.4418
lfingers 7.12502
lthumb 22.5038 1.26694
rfemur -9.85837 0.328965 10.5876
rtibia 24.5649
rfoot -21.6236 -6.09551
rtoes -10.2551
lfemur -15.5324 1.47428 -16.2833
ltibia 32.3509
lfoot -21.287 7.79167
ltoes -56.7312
221
root -0.804516 18.4429 5.07625 3.37766 2.27686 2.83577
lowerback 19.6555 4.98541 -1.03222
upperback 2.17894 6.09661 -2.51347
thorax -8.41625 2.91383 -3.75086
lowerneck -15.8851 -9.82647 -5.36474
upperneck 17.1541 -14.5861 11.1988
head 9.27583 -6.07854 2.72084
rclavicle 1.27346e-015 2.60532e-014
rhumerus 47.5437 -2.34515 -29.5663
rradius 67.2312
rwrist -4.17108
rhand -20.0396 -27.4324
rfingers 7.12502
rthumb 6.30155 -57.3187
lclavicle 1.27346e-015 2.60532e-014
lhumerus -20.816 -37.1805 88.7239
lradius 128.485
lwrist 26.4003
lhand -3.1416 -28.6375
lfingers 7.12502
lthumb 22.5781 0.0621806
rfemur -9.85377 0.184218 10.1712
rtibia 24.8096
rfoot -21.4938 -5.78698
rtoes -10.528
lfemur -15.4027 1.4839 -16.6502
ltibia 32.574
lfoot -21.3285 7.90214
ltoes -56.6419
222
root -0.755013 18.4292 5.0777 2.86651 1.80753 2.70608
lowerback 19.7709 4.06517 -0.961564
upperback 2.27687 4.98879 -1.53384
thorax -8.50728 2.39328 -2.44526
lowerneck -16.7848 -8.70355 -4.76592
upperneck 18.6265 -12.6432 8.31735
head 9.50552 -5.35194 1.91377
rclavicle -7.97127e-014 1.17283e-014
rhumerus 47.5437 -2.34515 -29.5663
rradius 67.2312
rwrist -4.17108
rhand -20.0396 -27.4324
rfingers 7.12502
rthumb 6.30155 -57.3187
lclavicle -7.97127e-014 1.17283e-014
lhumerus -13.8732 -36.1935 82.1219
lradius 128.204
lwrist 25.144
lhand -3.09637 -29.5681
lfingers 7.12502
lthumb 22.6215 -0.873727
rfemur -9.40797 0.262174 10.1184
rtibia 24.7061
rfoot -21.32 -5.61864
rtoes -11.0477
lfemur -14.9806 1.76049 -16.642
ltibia 32.8463
lfoot -21.3458 7.903
ltoes -56.4768
223
root -0.694679 18.4232 5.08101 2.19375 0.780224 2.11986
lowerback 19.9797 3.12169 -0.452126
upperback 2.49259 3.95289 -0.478012
thorax -8.45364 1.89765 -1.31909
lowerneck -17.7646 -7.3055 -3.93381
upperneck 19.8779 -10.2846 5.33312
head 9.71862 -4.46955 1.07542
rclavicle 1.08338e-014 -1.31198e-014
rhumerus 47.5437 -2.34515 -29.5663
rradius 67.2312
rwrist -4.17108
rhand -20.0396 -27.4324
rfingers 7.12502
rthumb 6.30155 -57.3187
lclavicle 1.08338e-014 -1.31198e-014
lhumerus -4.64682 -33.7651 74.172
lradius 126.658
lwrist 25.3963
lhand -2.29864 -31.6082
lfingers 7.12502
lthumb 23.3869 -3.00912
rfemur -8.76618 1.05803 10.5741
rtibia 24.3493
rfoot -21.1225 -5.67838
rtoes -11.8472
lfemur -14.2147 2.52238 -16.1277
ltibia 33.0426
lfoot -21.584 7.80125
ltoes -56.2605
224
root -0.627766 18.4241 5.09059 1.58505 -0.866533 1.44897
lowerback 20.8867 2.22623 0.381337
upperback 2.13079 3.02393 0.186813
thorax -9.35019 1.4231 -0.871626
lowerneck -17.9347 -5.767 -2.83466
upperneck 21.0695 -7.89853 2.80396
head 9.88169 -3.55014 0.358071
rclavicle 3.85642e-014 -6.75868e-015
rhumerus 47.5437 -2.34515 -29.5663
rradius 67.2312
rwrist -4.17108
rhand -20.0396 -27.4324
rfingers 7.12502
rthumb 6.30155 -57.3187
lclavicle 3.85642e-014 -6.75868e-015
lhumerus 4.03595 -30.754 65.7364
lradius 123.907
lwrist 27.9077
lhand -3.44061 -32.6206
lfingers 7.12502
lthumb 22.291 -3.88633
rfemur -8.1841 2.41483 11.15
rtibia 23.8509
rfoot -20.9009 -5.86403
rtoes -12.9489
lfemur -13.2578 3.82161 -15.4988
ltibia 33.0965
lfoot -21.9012 7.69341
ltoes -56.1866
225
root -0.55905 18.4253 5.10049 1.04141 -2.95406 1.1582
lowerback 21.7492 1.40345 0.38376
upperback 1.84822 2.00643 0.721506
thorax -10.1668 0.943595 -0.024523
lowerneck -17.9795 -4.09528 -1.67632
upperneck 21.9094 -5.45544 0.889942
head 10.0161 -2.54782 -0.161913
rclavicle -2.88238e-015 -7.55382e-015
rhumerus 47.5437 -2.34515 -29.5663
rradius 67.2312
rwrist -4.17108
rhand -20.0396 -27.4324
rfingers 7.12502
rthumb 6.30155 -57.3187
lclavicle -2.88238e-015 -7.55382e-015
lhumerus 12.4286 -26.5556 57.7524
lradius 118.638
lwrist 31.8935
lhand -6.64939 -33.6426
lfingers 7.12502
lthumb 19.208 -4.57117
rfemur -7.71397 3.79402 11.3022
rtibia 23.3209
rfoot -20.4645 -5.82609
rtoes -14.3853
lfemur -12.196 5.51336 -15.2438
ltibia 33.0707
lfoot -22.241 7.57386
ltoes -56.1008
226
root -0.49657 18.4256 5.10588 0.589303 -4.96415 1.10088
lowerback 22.2679 0.585957 -0.487271
upperback 1.85519 0.792406 1.36644
thorax -10.4613 0.426586 1.54943
lowerneck -18.0672 -2.33047 -0.469178
upperneck 22.2384 -2.94668 -0.719287
head 10.0671 -1.48465 -0.58269
rclavicle 1.45113e-014 -1.35174e-014
rhumerus 47.5437 -2.34515 -29.5663
rradius 67.2312
rwrist -4.17108
rhand -20.0396 -27.4324
rfingers 7.12502
rthumb 6.30155 -57.3187
lclavicle 1.45113e-014 -1.35174e-014
lhumerus 20.2996 -21.0027 52.0416
lradius 109.727
lwrist 35.3407
lhand -10.2555 -32.3678
lfingers 7.12502
lthumb 15.7376 -2.98765
rfemur -7.35992 4.66002 11.2007
rtibia 22.823
rfoot -19.8041 -5.51676
rtoes -16.1186
lfemur -11.291 7.04135 -15.209
ltibia 33.1105
lfoot -22.534 7.53403
ltoes -55.8341
227
root -0.441502 18.4267 5.10463 0.382939 -6.3177 0.772076
lowerback 21.8889 -0.422545 -1.50869
upperback 2.38422 -0.681685 2.34129
thorax -9.58776 -0.218421 3.64885
lowerneck -18.3163 -0.574382 0.349361
upperneck 21.9246 -0.41566 -2.00664
head 10.0021 -0.407405 -0.822775
rclavicle -3.39922e-014 0
rhumerus 47.5437 -2.34515 -29.5663
rradius 67.2312
rwrist -4.17108
rhand -20.0396 -27.4324
rfingers 7.12502
rthumb 6.30155 -57.3187
lclavicle -3.39922e-014 0
lhumerus 27.8237 -14.8152 48.9193
lradius 96.6716
lwrist 35.3015
lhand -13.4333 -29.384
lfingers 7.12502
lthumb 12.6755 0.211342
rfemur -7.13483 4.7754 11.3936
rtibia 22.33
rfoot -19.1027 -5.14702
rtoes -17.6693
lfemur -10.9087 7.97406 -14.9257
ltibia 33.329
lfoot -22.6359 7.707
ltoes -55.5754
228
root -0.384078 18.429 5.09764 0.367674 -6.83538 0.0630046
lowerback 21.4605 -1.60727 -2.10772
upperback 2.93872 -2.2685 3.52297
thorax -8.54648 -0.968559 5.72144
lowerneck -18.7275 1.03256 0.763792
upperneck 21.6527 1.93449 -2.96192
head 10.0314 0.592179 -0.901044
rclavicle 1.19271e-015 0
rhumerus 47.5437 -2.34515 -29.5663
rradius 67.2312
rwrist -4.17108
rhand -20.0396 -27.4324
rfingers 7.12502
rthumb 6.30155 -57.3187
lclavicle 1.19271e-015 0
lhumerus 35.3151 -8.41644 49.2027
lradius 79.0711
lwrist 31.8912
lhand -13.2619 -25.1126
lfingers 7.12502
lthumb 12.8407 4.47248
rfemur -6.89788 4.18674 11.9455
rtibia 21.7847
rfoot -18.4213 -4.71065
rtoes -18.6837
lfemur -11.0433 8.31878 -14.3353
ltibia 33.746
lfoot -22.647 7.96809
ltoes -55.4748
229
root -0.324399 18.432 5.09106 0.395989 -6.59254 -0.667067
lowerback 21.4694 -2.89625 -2.31756
upperback 3.23085 -3.92523 4.5163
thorax -7.95107 -1.77559 7.38292
lowerneck -19.0702 2.50302 1.41491
upperneck 21.6055 3.96442 -3.67486
head 10.154 1.4894 -0.970857
rclavicle -2.40529e-014 9.54166e-015
rhumerus 47.5437 -2.34515 -29.5663
rradius 67.2312
rwrist -4.17108
rhand -20.0396 -27.4324
rfingers 7.12502
rthumb 6.30155 -57.3187
lclavicle -2.40529e-014 9.54166e-015
lhumerus 44.4831 -2.60144 51.0831
lradius 56.9525
lwrist 25.0065
lhand -16.4867 -24.5125
lfingers 7.12502
lthumb 9.73062 5.24267
rfemur -6.52653 2.96922 12.4719
rtibia 21.1588
rfoot -17.7877 -4.20365
rtoes -19.4181
lfemur -11.485 8.01147 -13.7802
ltibia 34.2976
lfoot -22.6578 8.09024
ltoes -55.3906
